HIERARCHY
ROOT Hips
{
  OFFSET 57.8838 95.319 338.509
  CHANNELS 6 Xposition Yposition Zposition Zrotation Xrotation Yrotation
  JOINT LeftUpLeg
  {
    OFFSET 8.64259 1.95398 -2.38835
    CHANNELS 3 Zrotation Xrotation Yrotation
    JOINT LeftLeg
    {
      OFFSET 43.7702 0 0
      CHANNELS 3 Zrotation Xrotation Yrotation
      JOINT LeftFoot
      {
        OFFSET 40.6238 0 0
        CHANNELS 3 Zrotation Xrotation Yrotation
        JOINT LeftToeBase
        {
          OFFSET 12.7242 0 0
          CHANNELS 3 Zrotation Xrotation Yrotation
          End Site
          {
            OFFSET 0 0 0
          }
        }
      }
    }
  }
  JOINT RightUpLeg
  {
    OFFSET -8.2249 1.95398 -2.59336
    CHANNELS 3 Zrotation Xrotation Yrotation
    JOINT RightLeg
    {
      OFFSET 43.5653 0 0
      CHANNELS 3 Zrotation Xrotation Yrotation
      JOINT RightFoot
      {
        OFFSET 40.6238 0 0
        CHANNELS 3 Zrotation Xrotation Yrotation
        JOINT RightToeBase
        {
          OFFSET 12.7242 0 0
          CHANNELS 3 Zrotation Xrotation Yrotation
          End Site
          {
            OFFSET 0 0 0
          }
        }
      }
    }
  }
  JOINT Spine
  {
    OFFSET 0.165834 0.87714 6.61349
    CHANNELS 3 Zrotation Xrotation Yrotation
    JOINT Spine1
    {
      OFFSET 7.38963 1.71661e-005 0
      CHANNELS 3 Zrotation Xrotation Yrotation
      JOINT Spine2
      {
        OFFSET 11.9445 1.14441e-005 0
        CHANNELS 3 Zrotation Xrotation Yrotation
        JOINT Spine3
        {
          OFFSET 14.7254 4.19617e-005 0
          CHANNELS 3 Zrotation Xrotation Yrotation
          JOINT Spine4
          {
            OFFSET 10.9679 0 0
            CHANNELS 3 Zrotation Xrotation Yrotation
            JOINT RightShoulder
            {
              OFFSET 2.46616 -1.6653 3.69651
              CHANNELS 3 Zrotation Xrotation Yrotation
              JOINT RightArm
              {
                OFFSET 13.0012 0 0
                CHANNELS 3 Zrotation Xrotation Yrotation
                JOINT RightForeArm
                {
                  OFFSET 28.7848 1.62311e-005 0
                  CHANNELS 3 Zrotation Xrotation Yrotation
                  JOINT RightHand
                  {
                    OFFSET 26.5688 1.62095e-005 0
                    CHANNELS 3 Zrotation Xrotation Yrotation
                    End Site
                    {
                      OFFSET 0 0 0
                    }
                  }
                }
              }
            }
            JOINT LeftShoulder
            {
              OFFSET 2.38034 -1.29275 -3.7523
              CHANNELS 3 Zrotation Xrotation Yrotation
              JOINT LeftArm
              {
                OFFSET 16.3182 6.07031e-005 0
                CHANNELS 3 Zrotation Xrotation Yrotation
                JOINT LeftForeArm
                {
                  OFFSET 27.0901 0 0
                  CHANNELS 3 Zrotation Xrotation Yrotation
                  JOINT LeftHand
                  {
                    OFFSET 24.5451 1.51738e-005 0
                    CHANNELS 3 Zrotation Xrotation Yrotation
                    End Site
                    {
                      OFFSET 0 0 0
                    }
                  }
                }
              }
            }
            JOINT Neck
            {
              OFFSET 5.0226 -0.0266342 0
              CHANNELS 3 Zrotation Xrotation Yrotation
              JOINT Head
              {
                OFFSET 6.69364 2.86102e-005 0
                CHANNELS 3 Zrotation Xrotation Yrotation
                End Site
                {
                  OFFSET 0 0 0
                }
              }
            }
          }
        }
      }
    }
  }
}
MOTION
Frames:	10
Frame Time:	0.0416667
13.7075 97.1182 -28.2651 -137.528 -87.5008 -136.185 -177.173 2.92028 88.7633 -15.4463 1.39548 1.00648 66.5102 4.30262 1.19414 31.0114 0.843612 1.59657 174.775 1.5211 93.2447 -13.5258 -9.58822 -0.259168 65.128 -7.75815 0.113272 30.0781 -1.73394 0.813728 -0.311758 7.05819 -90.2625 12.7561 -0.744651 -0.436275 1.08527 -0.763131 -0.403086 -21.4504 -0.579116 -0.639908 -1.43779 -0.579115 -0.639914 98.0407 -50.4087 -88.3724 30.1238 -8.41081 -11.836 3.07477 -9.23114 -12.5634 -14.3145 -0.837718 1.6495 -78.9395 -52.0252 95.4627 -40.6194 -24.4664 -21.4461 3.85143 66.6779 0.0167818 2.59782 -0.245889 -12.8615 16.2806 -0.022115 1.00476 -15.0908 -0.308567 0.0283499 
13.7137 97.1214 -28.2705 -136.279 -87.5009 -134.891 -177.209 2.87358 88.809 -15.2539 1.45041 1.04962 66.3406 4.22503 1.19201 31.3337 0.976508 1.68127 174.777 1.60044 93.2688 -13.6095 -9.59951 -0.251778 65.181 -7.63371 0.283925 29.9391 -1.55277 0.915641 -0.311428 7.05676 -90.2646 12.7668 -0.74498 -0.439989 1.09599 -0.763614 -0.406777 -21.4397 -0.578303 -0.643544 -1.42706 -0.578302 -0.643541 98.0437 -50.3695 -88.3711 30.1837 -8.54555 -11.7833 3.05434 -9.2637 -12.6017 -14.346 -0.840207 1.65443 -78.9276 -52.0519 95.4807 -40.3965 -24.278 -21.4352 3.66092 66.708 0.0168023 2.69448 -0.253048 -12.8129 16.2057 -0.0761168 0.769379 -14.95 -0.336624 0.400242 
13.6625 97.1197 -28.2825 -134.939 -87.3882 -133.621 -177.163 2.92368 88.7535 -15.4507 1.24443 1.00283 66.4788 4.17102 1.06148 31.1773 0.903179 1.87731 174.81 1.6142 93.2408 -13.6593 -9.71705 -0.295757 65.1471 -7.67124 0.117896 30.0693 -1.72343 0.939245 -0.293714 7.05685 -90.2595 12.7602 -0.707345 -0.434556 1.08942 -0.725789 -0.403018 -21.4462 -0.544046 -0.627062 -1.43351 -0.544048 -0.627063 98.0692 -50.2857 -88.3386 30.2842 -8.41889 -11.8115 3.05563 -9.51865 -12.4208 -14.3708 -0.848324 1.70865 -78.8986 -52.1918 95.5268 -40.4179 -24.3044 -21.5211 3.68679 66.9183 0.0169469 2.83999 -0.256289 -12.6531 16.1693 -0.0325293 1.10282 -15.0478 -0.337245 -0.0434204 
13.672 97.1157 -28.292 -134.552 -87.443 -133.129 -177.207 2.9206 88.8466 -15.3307 1.3545 1.07645 66.4384 4.19242 1.01268 31.1693 0.890158 2.13814 174.849 1.63165 93.3589 -13.6009 -9.5779 -0.279321 65.1322 -7.64113 0.201563 29.9371 -1.55129 1.02444 -0.283943 7.05715 -90.2743 12.7733 -0.694977 -0.464941 1.10245 -0.714772 -0.433909 -21.433 -0.523123 -0.652316 -1.42034 -0.523123 -0.65232 98.1526 -50.2747 -88.2101 30.2655 -8.49898 -11.7868 3.05808 -9.52842 -12.4971 -14.5881 -0.901154 2.03169 -78.9482 -52.2455 95.4549 -40.3117 -24.1823 -21.5348 3.58556 66.5132 0.0166707 3.13324 -0.277142 -12.6861 16.238 -0.0130525 0.930282 -14.9524 -0.311532 0.320576 
13.648 97.1319 -28.2932 -134.193 -87.3355 -132.927 -177.274 2.80512 88.6729 -15.2436 1.23803 1.07334 66.374 4.15655 1.09306 31.138 0.881341 2.01396 174.682 1.64596 93.1207 -13.7293 -9.93301 -0.187714 65.1983 -7.67457 0.123308 30.0944 -1.75574 0.882016 -0.277937 7.05901 -90.2644 12.7554 -0.678372 -0.44776 1.08454 -0.697411 -0.417477 -21.4509 -0.512446 -0.630932 -1.43824 -0.512441 -0.630937 98.0912 -50.1721 -88.3137 30.2322 -8.51705 -11.794 3.18081 -9.2812 -12.4562 -15.0522 -0.895751 1.7592 -78.9526 -52.2872 95.4491 -40.3582 -24.2749 -21.4392 3.618 66.6468 0.0167607 3.24104 -0.287478 -12.6815 16.43 -0.0515589 1.10612 -15.2213 -0.395403 0.267782 
13.6179 97.1344 -28.311 -135.087 -87.4072 -133.756 -177.251 2.86021 88.7576 -15.2506 1.14644 1.0987 66.3644 4.08657 0.999285 31.2435 0.934561 1.79198 174.771 1.60377 93.2552 -13.5992 -9.82197 -0.222724 65.0698 -7.60386 0.0787008 30.0609 -1.71264 0.976103 -0.286007 7.06048 -90.2724 12.7647 -0.698167 -0.460887 1.09383 -0.717777 -0.429723 -21.4416 -0.527381 -0.649411 -1.42898 -0.527378 -0.649414 98.09 -50.1774 -88.3151 30.2199 -8.57096 -11.7406 3.12855 -9.30324 -12.6052 -15.0466 -0.892017 1.73222 -78.988 -52.5278 95.4027 -40.2038 -24.5241 -21.3459 3.70534 66.8892 0.0169267 2.89741 -0.266963 -12.7241 16.552 -0.161215 1.14942 -15.3714 -0.506819 0.186741 
13.5675 97.1249 -28.3174 -134.985 -87.4221 -133.595 -177.135 2.96436 88.8923 -15.4207 1.39288 1.03345 66.4508 4.20608 1.03195 31.1606 0.88242 2.24659 174.859 1.58513 93.3747 -13.5277 -9.69399 -0.261624 65.0945 -7.75686 0.0486592 29.9373 -1.54998 0.87672 -0.2807 7.0618 -90.2834 12.7656 -0.692891 -0.483382 1.0948 -0.713489 -0.452429 -21.4405 -0.515584 -0.669272 -1.42791 -0.515586 -0.669285 98.1538 -50.0911 -88.2232 30.2975 -8.51773 -11.8082 3.12885 -9.36004 -12.5576 -15.1393 -0.887468 1.65281 -78.9724 -52.4743 95.4243 -40.4995 -24.6865 -21.3921 3.90125 66.9094 0.0169408 3.22547 -0.287423 -12.6662 16.3574 -0.0669498 0.604395 -15.099 -0.346452 0.949879 
13.531 97.1228 -28.3271 -134.157 -87.4418 -132.799 -177.145 2.98833 88.8987 -15.3687 1.29303 1.0345 66.4545 4.20571 0.881441 31.1927 0.897971 2.1951 174.885 1.68353 93.3959 -13.6402 -9.55616 -0.297702 65.1402 -7.66854 0.172549 29.9595 -1.58068 1.03292 -0.282418 7.06334 -90.2792 12.7632 -0.694292 -0.474883 1.09231 -0.714517 -0.443871 -21.4431 -0.519476 -0.661583 -1.43043 -0.519477 -0.661593 98.0817 -50.0988 -88.3342 30.3063 -8.54103 -11.7954 3.07795 -9.28345 -12.6083 -14.8233 -0.862073 1.60177 -78.8569 -52.5443 95.5963 -40.4557 -24.7286 -21.4513 3.97733 67.1094 0.0170807 2.74019 -0.256716 -12.7625 16.1614 0.0333604 0.725549 -14.7051 -0.253856 0.736513 
13.4874 97.1188 -28.3097 -137.178 -87.5026 -135.858 -177.134 2.94705 88.884 -15.3907 1.31819 1.02666 66.4187 4.15603 0.992938 31.3143 0.96399 1.80255 174.854 1.61196 93.3724 -13.659 -9.54022 -0.293613 65.1995 -7.74554 0.1677 29.9429 -1.55714 0.859592 -0.301848 7.06444 -90.2692 12.7434 -0.728136 -0.45169 1.07262 -0.747309 -0.419207 -21.463 -0.558726 -0.649648 -1.45032 -0.558728 -0.649649 98.0415 -50.1246 -88.3943 30.3357 -8.65971 -11.7745 3.10663 -9.25833 -12.6282 -14.914 -0.855417 1.5055 -78.8623 -52.3439 95.5841 -40.4909 -24.6496 -21.2608 3.86569 66.952 0.0169703 2.57626 -0.245595 -12.6984 16.1839 0.085131 0.623903 -14.6385 -0.178672 0.774257 
13.4549 97.1226 -28.3093 -138.621 -87.6914 -137.366 -177.241 3.00305 88.8253 -15.3135 1.4913 1.07789 66.4018 4.24908 0.949456 31.1707 0.90102 1.86088 174.863 1.7101 93.3778 -13.6575 -9.26274 -0.317046 65.1869 -7.61545 0.161345 30.0478 -1.69556 0.980577 -0.30981 7.0643 -90.2678 12.7462 -0.743267 -0.446923 1.07537 -0.762207 -0.413786 -21.4603 -0.574592 -0.64964 -1.44764 -0.57458 -0.649641 98.0456 -50.0144 -88.3971 30.4963 -8.63316 -11.7037 3.10883 -9.22222 -12.7494 -15.2147 -0.92225 1.88877 -78.9015 -52.4346 95.5282 -40.3297 -24.5095 -21.2566 3.67805 66.7605 0.0168382 2.56626 -0.238922 -12.5267 16.1474 0.196787 1.84619 -14.6694 -0.229165 -0.87919 
